<svg xmlns="http://www.w3.org/2000/svg" width="800" height="800" viewBox="0 0 800 800" role="img" aria-label="Imagen no disponible">
  <rect width="800" height="800" fill="#F2F2F2"/>
  <g fill="#64748B" opacity="0.5">
    <path d="M400 300a60 60 0 1 0 0 120 60 60 0 0 0 0-120zm0 40a20 20 0 1 1 0 40 20 20 0 0 1 0-40z"/>
    <path d="M250 220h300a30 30 0 0 1 30 30v300a30 30 0 0 1-30 30H250a30 30 0 0 1-30-30V250a30 30 0 0 1 30-30zm0 40v230l70-70 55 55 90-90 55 55V260H250z"/>
  </g>
  <text x="400" y="600" font-family="Poppins, Arial, sans-serif" font-size="34" fill="#64748B" text-anchor="middle">SAMVERO</text>
</svg>
